<svg id="visual" viewBox="0 0 960 540" width="960" height="540" xmlns="http://www.w3.org/2000/svg" xmlns:xlink="http://www.w3.org/1999/xlink" version="1.1"><rect x="0" y="0" width="960" height="540" fill="#579ca0"></rect><g transform="translate(478.25273688897624 275.1987025414992)"><path d="M157.2 -187.2C198.8 -152.5 224 -98.2 230.2 -43.4C236.5 11.4 223.9 66.7 196.5 112.7C169 158.7 126.8 195.4 78.1 212C29.4 228.7 -25.7 225.2 -78 208.6C-130.3 192 -179.9 162.3 -205.7 118.4C-231.5 74.5 -233.4 16.5 -220.5 -35.7C-207.5 -88 -179.7 -134.5 -140.5 -169.6C-101.2 -204.7 -50.6 -228.3 3.6 -232.6C57.9 -236.9 115.7 -221.9 157.2 -187.2" fill="#57c4d3"></path></g></svg>